<mxfile host="65bd71144e">
    <diagram id="H9sBwTykXdNDQMzXnuWS" name="Page-1">
        <mxGraphModel dx="973" dy="623" grid="0" gridSize="1" guides="1" tooltips="1" connect="1" arrows="1" fold="1" page="1" pageScale="1" pageWidth="3300" pageHeight="4681" background="#ffffff" math="0" shadow="0">
            <root>
                <mxCell id="0"/>
                <mxCell id="1" parent="0"/>
                <mxCell id="33" value="" style="edgeStyle=none;html=1;shadow=0;strokeWidth=2;strokeColor=#000000;fontSize=14;" parent="1" source="6" target="32" edge="1">
                    <mxGeometry relative="1" as="geometry"/>
                </mxCell>
                <mxCell id="75" value="" style="edgeStyle=none;html=1;shadow=0;strokeWidth=2;strokeColor=#000000;exitX=0;exitY=0.5;exitDx=0;exitDy=0;fontSize=14;" parent="1" source="6" target="74" edge="1">
                    <mxGeometry relative="1" as="geometry">
                        <mxPoint x="1448" y="1550" as="sourcePoint"/>
                    </mxGeometry>
                </mxCell>
                <mxCell id="167" style="edgeStyle=none;html=1;exitX=0;exitY=0.75;exitDx=0;exitDy=0;strokeColor=#000000;strokeWidth=2;entryX=1;entryY=0.5;entryDx=0;entryDy=0;fontSize=14;" edge="1" parent="1" source="6" target="168">
                    <mxGeometry relative="1" as="geometry">
                        <mxPoint x="1307.7142857142858" y="1616.095238095238" as="targetPoint"/>
                    </mxGeometry>
                </mxCell>
                <mxCell id="6" value="Home Page" style="rounded=0;whiteSpace=wrap;html=1;shadow=0;strokeWidth=2;strokeColor=#000000;fontSize=14;" parent="1" vertex="1">
                    <mxGeometry x="1466" y="1474" width="120" height="60" as="geometry"/>
                </mxCell>
                <mxCell id="9" value="" style="endArrow=classic;html=1;exitX=0;exitY=0.25;exitDx=0;exitDy=0;entryX=1;entryY=0.5;entryDx=0;entryDy=0;shadow=0;strokeWidth=2;strokeColor=#000000;fontSize=14;" parent="1" source="6" target="10" edge="1">
                    <mxGeometry width="50" height="50" relative="1" as="geometry">
                        <mxPoint x="1347" y="1501" as="sourcePoint"/>
                        <mxPoint x="1357" y="1501" as="targetPoint"/>
                        <Array as="points"/>
                    </mxGeometry>
                </mxCell>
                <mxCell id="10" value="Login" style="rounded=0;whiteSpace=wrap;html=1;shadow=0;strokeWidth=2;strokeColor=#000000;fontSize=14;" parent="1" vertex="1">
                    <mxGeometry x="1100" y="1310" width="120" height="60" as="geometry"/>
                </mxCell>
                <mxCell id="11" value="" style="endArrow=classic;html=1;exitX=0.25;exitY=0;exitDx=0;exitDy=0;entryX=0.5;entryY=1;entryDx=0;entryDy=0;shadow=0;strokeWidth=2;strokeColor=#000000;fontSize=14;" parent="1" source="6" target="12" edge="1">
                    <mxGeometry width="50" height="50" relative="1" as="geometry">
                        <mxPoint x="1507" y="1511" as="sourcePoint"/>
                        <mxPoint x="1357" y="1461" as="targetPoint"/>
                    </mxGeometry>
                </mxCell>
                <mxCell id="166" style="edgeStyle=none;html=1;exitX=0.25;exitY=0;exitDx=0;exitDy=0;entryX=0.5;entryY=1;entryDx=0;entryDy=0;strokeWidth=2;strokeColor=#000000;fontSize=14;" parent="1" source="12" target="165" edge="1">
                    <mxGeometry relative="1" as="geometry"/>
                </mxCell>
                <mxCell id="12" value="User profile" style="rounded=0;whiteSpace=wrap;html=1;shadow=0;strokeWidth=2;strokeColor=#000000;fontSize=14;" parent="1" vertex="1">
                    <mxGeometry x="1367" y="1265" width="120" height="60" as="geometry"/>
                </mxCell>
                <mxCell id="14" value="" style="endArrow=classic;html=1;exitX=0.5;exitY=0;exitDx=0;exitDy=0;shadow=0;strokeWidth=2;strokeColor=#000000;entryX=0.5;entryY=1;entryDx=0;entryDy=0;fontSize=14;" parent="1" source="12" target="15" edge="1">
                    <mxGeometry width="50" height="50" relative="1" as="geometry">
                        <mxPoint x="1207" y="1511" as="sourcePoint"/>
                        <mxPoint x="1157" y="1451" as="targetPoint"/>
                    </mxGeometry>
                </mxCell>
                <mxCell id="15" value="Edit profile" style="rounded=0;whiteSpace=wrap;html=1;shadow=0;strokeWidth=2;strokeColor=#000000;fontSize=14;" parent="1" vertex="1">
                    <mxGeometry x="1422.5" y="1133.5" width="120" height="49" as="geometry"/>
                </mxCell>
                <mxCell id="18" value="" style="endArrow=classic;html=1;exitX=0.5;exitY=0;exitDx=0;exitDy=0;entryX=0.5;entryY=1;entryDx=0;entryDy=0;shadow=0;strokeWidth=2;strokeColor=#000000;fontSize=14;" parent="1" source="6" target="113" edge="1">
                    <mxGeometry width="50" height="50" relative="1" as="geometry">
                        <mxPoint x="1587" y="1471" as="sourcePoint"/>
                        <mxPoint x="1321" y="1283" as="targetPoint"/>
                        <Array as="points"/>
                    </mxGeometry>
                </mxCell>
                <mxCell id="20" value="" style="endArrow=classic;html=1;exitX=0.75;exitY=0;exitDx=0;exitDy=0;shadow=0;strokeWidth=2;strokeColor=#000000;entryX=0;entryY=1;entryDx=0;entryDy=0;fontSize=14;" parent="1" source="6" target="21" edge="1">
                    <mxGeometry width="50" height="50" relative="1" as="geometry">
                        <mxPoint x="1587" y="1471" as="sourcePoint"/>
                        <mxPoint x="1769" y="1340" as="targetPoint"/>
                        <Array as="points"/>
                    </mxGeometry>
                </mxCell>
                <mxCell id="46" value="" style="edgeStyle=none;html=1;shadow=0;strokeWidth=2;strokeColor=#000000;fontSize=14;" parent="1" source="21" target="45" edge="1">
                    <mxGeometry relative="1" as="geometry"/>
                </mxCell>
                <mxCell id="50" value="" style="edgeStyle=none;html=1;shadow=0;strokeWidth=2;strokeColor=#000000;entryX=0;entryY=0.5;entryDx=0;entryDy=0;fontSize=14;" parent="1" source="21" target="49" edge="1">
                    <mxGeometry relative="1" as="geometry"/>
                </mxCell>
                <mxCell id="21" value="Exchange" style="rounded=0;whiteSpace=wrap;html=1;shadow=0;strokeWidth=2;strokeColor=#000000;fontSize=14;" parent="1" vertex="1">
                    <mxGeometry x="1718" y="1315" width="120" height="60" as="geometry"/>
                </mxCell>
                <mxCell id="24" value="" style="endArrow=classic;html=1;exitX=0.5;exitY=1;exitDx=0;exitDy=0;entryX=0.5;entryY=0;entryDx=0;entryDy=0;shadow=0;strokeWidth=2;strokeColor=#000000;fontSize=14;" parent="1" source="6" target="25" edge="1">
                    <mxGeometry width="50" height="50" relative="1" as="geometry">
                        <mxPoint x="1477" y="1391" as="sourcePoint"/>
                        <mxPoint x="1687" y="1681" as="targetPoint"/>
                        <Array as="points"/>
                    </mxGeometry>
                </mxCell>
                <mxCell id="25" value="Auction" style="rounded=0;whiteSpace=wrap;html=1;shadow=0;strokeWidth=2;strokeColor=#000000;fontSize=14;" parent="1" vertex="1">
                    <mxGeometry x="1466" y="1652" width="120" height="60" as="geometry"/>
                </mxCell>
                <mxCell id="26" value="" style="endArrow=classic;html=1;exitX=0.75;exitY=1;exitDx=0;exitDy=0;entryX=0;entryY=0;entryDx=0;entryDy=0;shadow=0;strokeWidth=2;strokeColor=#000000;fontSize=14;" parent="1" source="6" target="27" edge="1">
                    <mxGeometry width="50" height="50" relative="1" as="geometry">
                        <mxPoint x="1477" y="1551" as="sourcePoint"/>
                        <mxPoint x="1687" y="1571" as="targetPoint"/>
                        <Array as="points"/>
                    </mxGeometry>
                </mxCell>
                <mxCell id="27" value="Market" style="rounded=0;whiteSpace=wrap;html=1;shadow=0;strokeWidth=2;strokeColor=#000000;fontSize=14;" parent="1" vertex="1">
                    <mxGeometry x="1701" y="1654" width="120" height="60" as="geometry"/>
                </mxCell>
                <mxCell id="52" value="" style="edgeStyle=none;html=1;shadow=0;strokeWidth=2;strokeColor=#000000;fontSize=14;" parent="1" source="32" target="51" edge="1">
                    <mxGeometry relative="1" as="geometry"/>
                </mxCell>
                <mxCell id="56" value="" style="edgeStyle=none;html=1;shadow=0;strokeWidth=2;strokeColor=#000000;fontSize=14;" parent="1" source="32" target="55" edge="1">
                    <mxGeometry relative="1" as="geometry"/>
                </mxCell>
                <mxCell id="32" value="Manage Stuff" style="whiteSpace=wrap;html=1;rounded=0;shadow=0;strokeWidth=2;strokeColor=#000000;fontSize=14;" parent="1" vertex="1">
                    <mxGeometry x="1709" y="1466" width="120" height="60" as="geometry"/>
                </mxCell>
                <mxCell id="45" value="New exchange" style="whiteSpace=wrap;html=1;rounded=0;shadow=0;strokeWidth=2;strokeColor=#000000;fontSize=14;" parent="1" vertex="1">
                    <mxGeometry x="1753" y="1161" width="120" height="60" as="geometry"/>
                </mxCell>
                <mxCell id="120" value="" style="edgeStyle=none;html=1;strokeColor=#000000;strokeWidth=2;entryX=0;entryY=1;entryDx=0;entryDy=0;fontSize=14;" parent="1" source="49" target="119" edge="1">
                    <mxGeometry relative="1" as="geometry"/>
                </mxCell>
                <mxCell id="125" style="edgeStyle=none;html=1;exitX=1;exitY=0.5;exitDx=0;exitDy=0;entryX=0;entryY=0.5;entryDx=0;entryDy=0;strokeColor=#000000;strokeWidth=2;fontSize=14;" parent="1" source="49" target="124" edge="1">
                    <mxGeometry relative="1" as="geometry"/>
                </mxCell>
                <mxCell id="49" value="View Exchange&amp;nbsp;" style="whiteSpace=wrap;html=1;rounded=0;shadow=0;strokeWidth=2;strokeColor=#000000;fontSize=14;" parent="1" vertex="1">
                    <mxGeometry x="1914" y="1280" width="120" height="60" as="geometry"/>
                </mxCell>
                <mxCell id="51" value="View Own Stuff" style="whiteSpace=wrap;html=1;rounded=0;shadow=0;strokeWidth=2;strokeColor=#000000;fontSize=14;" parent="1" vertex="1">
                    <mxGeometry x="1969" y="1397" width="120" height="60" as="geometry"/>
                </mxCell>
                <mxCell id="55" value="Edit Stuff" style="whiteSpace=wrap;html=1;rounded=0;shadow=0;strokeWidth=2;strokeColor=#000000;fontSize=14;" parent="1" vertex="1">
                    <mxGeometry x="1969" y="1550" width="120" height="60" as="geometry"/>
                </mxCell>
                <mxCell id="77" value="" style="edgeStyle=none;html=1;shadow=0;strokeWidth=2;strokeColor=#000000;entryX=1;entryY=0.5;entryDx=0;entryDy=0;fontSize=14;" parent="1" source="74" target="76" edge="1">
                    <mxGeometry relative="1" as="geometry"/>
                </mxCell>
                <mxCell id="79" value="" style="edgeStyle=none;html=1;shadow=0;strokeWidth=2;strokeColor=#000000;fontSize=14;" parent="1" source="74" target="78" edge="1">
                    <mxGeometry relative="1" as="geometry"/>
                </mxCell>
                <mxCell id="74" value="Dashboard" style="whiteSpace=wrap;html=1;rounded=0;shadow=0;strokeWidth=2;strokeColor=#000000;fontSize=14;" parent="1" vertex="1">
                    <mxGeometry x="1060" y="1486" width="120" height="60" as="geometry"/>
                </mxCell>
                <mxCell id="84" value="" style="edgeStyle=none;html=1;shadow=0;strokeWidth=2;strokeColor=#000000;fontSize=14;" parent="1" source="76" target="83" edge="1">
                    <mxGeometry relative="1" as="geometry"/>
                </mxCell>
                <mxCell id="85" value="" style="edgeStyle=none;html=1;shadow=0;strokeWidth=2;strokeColor=#000000;fontSize=14;" parent="1" source="76" target="83" edge="1">
                    <mxGeometry relative="1" as="geometry"/>
                </mxCell>
                <mxCell id="86" value="" style="edgeStyle=none;html=1;shadow=0;strokeWidth=2;strokeColor=#000000;fontSize=14;" parent="1" source="76" target="83" edge="1">
                    <mxGeometry relative="1" as="geometry"/>
                </mxCell>
                <mxCell id="87" value="" style="edgeStyle=none;html=1;shadow=0;strokeWidth=2;strokeColor=#000000;fontSize=14;" parent="1" source="76" target="83" edge="1">
                    <mxGeometry relative="1" as="geometry"/>
                </mxCell>
                <mxCell id="88" value="" style="edgeStyle=none;html=1;shadow=0;strokeWidth=2;strokeColor=#000000;fontSize=14;" parent="1" source="76" target="83" edge="1">
                    <mxGeometry relative="1" as="geometry"/>
                </mxCell>
                <mxCell id="89" value="" style="edgeStyle=none;html=1;shadow=0;strokeWidth=2;strokeColor=#000000;fontSize=14;" parent="1" source="76" target="83" edge="1">
                    <mxGeometry relative="1" as="geometry"/>
                </mxCell>
                <mxCell id="90" value="" style="edgeStyle=none;html=1;shadow=0;strokeWidth=2;strokeColor=#000000;fontSize=14;" parent="1" source="76" target="83" edge="1">
                    <mxGeometry relative="1" as="geometry"/>
                </mxCell>
                <mxCell id="91" value="" style="edgeStyle=none;html=1;shadow=0;strokeWidth=2;strokeColor=#000000;fontSize=14;" parent="1" source="76" target="83" edge="1">
                    <mxGeometry relative="1" as="geometry"/>
                </mxCell>
                <mxCell id="92" value="" style="edgeStyle=none;html=1;shadow=0;strokeWidth=2;strokeColor=#000000;fontSize=14;" parent="1" source="76" target="83" edge="1">
                    <mxGeometry relative="1" as="geometry"/>
                </mxCell>
                <mxCell id="93" value="" style="edgeStyle=none;html=1;shadow=0;strokeWidth=2;strokeColor=#000000;fontSize=14;" parent="1" source="76" target="83" edge="1">
                    <mxGeometry relative="1" as="geometry"/>
                </mxCell>
                <mxCell id="94" value="" style="edgeStyle=none;html=1;shadow=0;strokeWidth=2;strokeColor=#000000;fontSize=14;" parent="1" source="76" target="83" edge="1">
                    <mxGeometry relative="1" as="geometry"/>
                </mxCell>
                <mxCell id="95" value="" style="edgeStyle=none;html=1;shadow=0;strokeWidth=2;strokeColor=#000000;fontSize=14;" parent="1" source="76" target="83" edge="1">
                    <mxGeometry relative="1" as="geometry"/>
                </mxCell>
                <mxCell id="96" value="" style="edgeStyle=none;html=1;shadow=0;strokeWidth=2;strokeColor=#000000;fontSize=14;" parent="1" source="76" target="83" edge="1">
                    <mxGeometry relative="1" as="geometry"/>
                </mxCell>
                <mxCell id="98" value="" style="edgeStyle=none;html=1;shadow=0;strokeWidth=2;strokeColor=#000000;fontSize=14;" parent="1" source="76" target="83" edge="1">
                    <mxGeometry relative="1" as="geometry"/>
                </mxCell>
                <mxCell id="76" value="Account" style="whiteSpace=wrap;html=1;rounded=0;shadow=0;strokeWidth=2;strokeColor=#000000;fontSize=14;" parent="1" vertex="1">
                    <mxGeometry x="781" y="1608" width="120" height="60" as="geometry"/>
                </mxCell>
                <mxCell id="103" value="" style="edgeStyle=none;html=1;shadow=0;strokeWidth=2;strokeColor=#000000;exitX=0;exitY=0.25;exitDx=0;exitDy=0;entryX=1;entryY=0.5;entryDx=0;entryDy=0;fontSize=14;" parent="1" source="78" target="80" edge="1">
                    <mxGeometry relative="1" as="geometry">
                        <mxPoint x="744" y="1391" as="targetPoint"/>
                    </mxGeometry>
                </mxCell>
                <mxCell id="78" value="Request" style="whiteSpace=wrap;html=1;rounded=0;shadow=0;strokeWidth=2;strokeColor=#000000;fontSize=14;" parent="1" vertex="1">
                    <mxGeometry x="785" y="1406" width="120" height="60" as="geometry"/>
                </mxCell>
                <mxCell id="80" value="View Request&amp;nbsp;" style="whiteSpace=wrap;html=1;rounded=0;shadow=0;strokeWidth=2;strokeColor=#000000;fontSize=14;" parent="1" vertex="1">
                    <mxGeometry x="583" y="1340" width="120" height="60" as="geometry"/>
                </mxCell>
                <mxCell id="83" value="View Account" style="whiteSpace=wrap;html=1;rounded=0;shadow=0;strokeWidth=2;strokeColor=#000000;fontSize=14;" parent="1" vertex="1">
                    <mxGeometry x="579" y="1558" width="120" height="60" as="geometry"/>
                </mxCell>
                <mxCell id="99" value="Edit account" style="rounded=0;whiteSpace=wrap;html=1;shadow=0;strokeWidth=2;strokeColor=#000000;fontSize=14;" parent="1" vertex="1">
                    <mxGeometry x="579" y="1672" width="120" height="60" as="geometry"/>
                </mxCell>
                <mxCell id="100" value="" style="endArrow=classic;html=1;exitX=0;exitY=0.75;exitDx=0;exitDy=0;entryX=1;entryY=0.5;entryDx=0;entryDy=0;shadow=0;strokeWidth=2;strokeColor=#000000;fontSize=14;" parent="1" source="76" target="99" edge="1">
                    <mxGeometry width="50" height="50" relative="1" as="geometry">
                        <mxPoint x="2057" y="1721" as="sourcePoint"/>
                        <mxPoint x="2107" y="1671" as="targetPoint"/>
                    </mxGeometry>
                </mxCell>
                <mxCell id="102" value="Edit request" style="rounded=0;whiteSpace=wrap;html=1;shadow=0;strokeWidth=2;strokeColor=#000000;fontSize=14;" parent="1" vertex="1">
                    <mxGeometry x="583" y="1448" width="120" height="60" as="geometry"/>
                </mxCell>
                <mxCell id="104" value="" style="endArrow=classic;html=1;exitX=0;exitY=0.75;exitDx=0;exitDy=0;entryX=1;entryY=0.5;entryDx=0;entryDy=0;shadow=0;strokeWidth=2;strokeColor=#000000;fontSize=14;" parent="1" source="78" target="102" edge="1">
                    <mxGeometry width="50" height="50" relative="1" as="geometry">
                        <mxPoint x="2097" y="1931" as="sourcePoint"/>
                        <mxPoint x="2147" y="1881" as="targetPoint"/>
                    </mxGeometry>
                </mxCell>
                <mxCell id="105" value="" style="edgeStyle=none;html=1;exitX=1;exitY=0.5;exitDx=0;exitDy=0;shadow=0;strokeWidth=2;strokeColor=#000000;fontSize=14;" parent="1" source="27" target="107" edge="1">
                    <mxGeometry relative="1" as="geometry">
                        <mxPoint x="1817" y="1931.3999999999999" as="sourcePoint"/>
                    </mxGeometry>
                </mxCell>
                <mxCell id="106" value="" style="edgeStyle=none;html=1;exitX=0.5;exitY=1;exitDx=0;exitDy=0;shadow=0;strokeWidth=2;strokeColor=#000000;entryX=0;entryY=0.5;entryDx=0;entryDy=0;fontSize=14;" parent="1" source="27" target="108" edge="1">
                    <mxGeometry relative="1" as="geometry">
                        <mxPoint x="1817" y="1953" as="sourcePoint"/>
                    </mxGeometry>
                </mxCell>
                <mxCell id="107" value="New Sale" style="whiteSpace=wrap;html=1;rounded=0;shadow=0;strokeWidth=2;strokeColor=#000000;fontSize=14;" parent="1" vertex="1">
                    <mxGeometry x="1910" y="1652" width="120" height="60" as="geometry"/>
                </mxCell>
                <mxCell id="108" value="View Market&amp;nbsp;" style="whiteSpace=wrap;html=1;rounded=0;shadow=0;strokeWidth=2;strokeColor=#000000;fontSize=14;" parent="1" vertex="1">
                    <mxGeometry x="1905" y="1749" width="120" height="60" as="geometry"/>
                </mxCell>
                <mxCell id="109" value="" style="edgeStyle=none;html=1;exitX=0.25;exitY=1;exitDx=0;exitDy=0;shadow=0;strokeWidth=2;strokeColor=#000000;fontSize=14;" parent="1" source="25" target="111" edge="1">
                    <mxGeometry relative="1" as="geometry">
                        <mxPoint x="1822" y="2056" as="sourcePoint"/>
                    </mxGeometry>
                </mxCell>
                <mxCell id="110" value="" style="edgeStyle=none;html=1;exitX=0.75;exitY=1;exitDx=0;exitDy=0;shadow=0;strokeWidth=2;strokeColor=#000000;fontSize=14;" parent="1" source="25" target="112" edge="1">
                    <mxGeometry relative="1" as="geometry">
                        <mxPoint x="1822" y="2086" as="sourcePoint"/>
                    </mxGeometry>
                </mxCell>
                <mxCell id="111" value="New Auction" style="whiteSpace=wrap;html=1;rounded=0;shadow=0;strokeWidth=2;strokeColor=#000000;fontSize=14;" parent="1" vertex="1">
                    <mxGeometry x="1379" y="1759" width="120" height="60" as="geometry"/>
                </mxCell>
                <mxCell id="112" value="View Auction&amp;nbsp;" style="whiteSpace=wrap;html=1;rounded=0;shadow=0;strokeWidth=2;strokeColor=#000000;fontSize=14;" parent="1" vertex="1">
                    <mxGeometry x="1530" y="1759" width="120" height="60" as="geometry"/>
                </mxCell>
                <mxCell id="113" value="Create Stuff" style="rounded=0;whiteSpace=wrap;html=1;strokeWidth=2;strokeColor=#000000;fontSize=14;" parent="1" vertex="1">
                    <mxGeometry x="1594" y="1128" width="120" height="60" as="geometry"/>
                </mxCell>
                <mxCell id="119" value="Detail" style="whiteSpace=wrap;html=1;strokeColor=#000000;rounded=0;shadow=0;strokeWidth=2;fontSize=14;" parent="1" vertex="1">
                    <mxGeometry x="2123" y="1176" width="120" height="60" as="geometry"/>
                </mxCell>
                <mxCell id="124" value="Edit" style="rounded=0;whiteSpace=wrap;html=1;strokeWidth=2;strokeColor=#000000;fontSize=14;" parent="1" vertex="1">
                    <mxGeometry x="2123" y="1273.5" width="118" height="66.5" as="geometry"/>
                </mxCell>
                <mxCell id="128" value="" style="edgeStyle=none;html=1;strokeColor=#000000;strokeWidth=2;entryX=0.5;entryY=0;entryDx=0;entryDy=0;exitX=0.25;exitY=1;exitDx=0;exitDy=0;fontSize=14;" parent="1" source="112" target="130" edge="1">
                    <mxGeometry relative="1" as="geometry">
                        <mxPoint x="1578" y="1895" as="sourcePoint"/>
                        <mxPoint x="1685" y="1810.4545454545455" as="targetPoint"/>
                    </mxGeometry>
                </mxCell>
                <mxCell id="129" style="edgeStyle=none;html=1;entryX=0.25;entryY=0;entryDx=0;entryDy=0;strokeColor=#000000;strokeWidth=2;exitX=0.75;exitY=1;exitDx=0;exitDy=0;fontSize=14;" parent="1" source="112" target="131" edge="1">
                    <mxGeometry relative="1" as="geometry">
                        <mxPoint x="1626" y="1850" as="sourcePoint"/>
                        <mxPoint x="1685" y="1902.25" as="targetPoint"/>
                    </mxGeometry>
                </mxCell>
                <mxCell id="130" value="Detail" style="whiteSpace=wrap;html=1;strokeColor=#000000;rounded=0;shadow=0;strokeWidth=2;fontSize=14;" parent="1" vertex="1">
                    <mxGeometry x="1452" y="1906.5" width="120" height="60" as="geometry"/>
                </mxCell>
                <mxCell id="136" style="edgeStyle=none;html=1;exitX=0.5;exitY=1;exitDx=0;exitDy=0;entryX=1;entryY=0.5;entryDx=0;entryDy=0;strokeColor=#000000;strokeWidth=2;fontSize=14;" parent="1" source="131" target="55" edge="1">
                    <mxGeometry relative="1" as="geometry">
                        <Array as="points">
                            <mxPoint x="1694" y="2166"/>
                            <mxPoint x="2247" y="2166"/>
                            <mxPoint x="2253" y="1580"/>
                        </Array>
                    </mxGeometry>
                </mxCell>
                <mxCell id="131" value="Edit" style="rounded=0;whiteSpace=wrap;html=1;strokeWidth=2;strokeColor=#000000;fontSize=14;" parent="1" vertex="1">
                    <mxGeometry x="1635" y="1900" width="118" height="66.5" as="geometry"/>
                </mxCell>
                <mxCell id="132" value="" style="edgeStyle=none;html=1;strokeColor=#000000;strokeWidth=2;entryX=0.25;entryY=0;entryDx=0;entryDy=0;exitX=0.25;exitY=1;exitDx=0;exitDy=0;fontSize=14;" parent="1" source="108" target="134" edge="1">
                    <mxGeometry relative="1" as="geometry">
                        <mxPoint x="1998" y="1830.75" as="sourcePoint"/>
                        <mxPoint x="2064" y="1822" as="targetPoint"/>
                    </mxGeometry>
                </mxCell>
                <mxCell id="133" style="edgeStyle=none;html=1;exitX=0.75;exitY=1;exitDx=0;exitDy=0;entryX=0.182;entryY=0;entryDx=0;entryDy=0;strokeColor=#000000;strokeWidth=2;entryPerimeter=0;fontSize=14;" parent="1" source="108" target="135" edge="1">
                    <mxGeometry relative="1" as="geometry">
                        <mxPoint x="2008" y="1862" as="sourcePoint"/>
                        <mxPoint x="2064" y="1914.25" as="targetPoint"/>
                    </mxGeometry>
                </mxCell>
                <mxCell id="134" value="Detail" style="whiteSpace=wrap;html=1;strokeColor=#000000;rounded=0;shadow=0;strokeWidth=2;fontSize=14;" parent="1" vertex="1">
                    <mxGeometry x="1858" y="1874" width="120" height="60" as="geometry"/>
                </mxCell>
                <mxCell id="135" value="Edit" style="rounded=0;whiteSpace=wrap;html=1;strokeWidth=2;strokeColor=#000000;fontSize=14;" parent="1" vertex="1">
                    <mxGeometry x="2025" y="1873" width="118" height="66.5" as="geometry"/>
                </mxCell>
                <mxCell id="138" value="" style="endArrow=none;html=1;strokeColor=#000000;strokeWidth=2;entryX=0.5;entryY=1;entryDx=0;entryDy=0;fontSize=14;" parent="1" target="135" edge="1">
                    <mxGeometry width="50" height="50" relative="1" as="geometry">
                        <mxPoint x="2081" y="2165" as="sourcePoint"/>
                        <mxPoint x="1815" y="1799" as="targetPoint"/>
                    </mxGeometry>
                </mxCell>
                <mxCell id="143" value="" style="endArrow=none;html=1;strokeColor=#000000;strokeWidth=2;exitX=0.5;exitY=1;exitDx=0;exitDy=0;fontSize=14;" parent="1" source="124" edge="1">
                    <mxGeometry width="50" height="50" relative="1" as="geometry">
                        <mxPoint x="1825" y="1561" as="sourcePoint"/>
                        <mxPoint x="2178" y="1580" as="targetPoint"/>
                    </mxGeometry>
                </mxCell>
                <mxCell id="145" value="&lt;font style=&quot;font-size: 14px;&quot;&gt;Click dashboard&amp;nbsp; (Admin/Moderrators)&lt;/font&gt;" style="text;html=1;strokeColor=none;fillColor=none;align=center;verticalAlign=middle;whiteSpace=wrap;rounded=0;strokeWidth=2;fontColor=#000000;rotation=0;fontSize=14;" parent="1" vertex="1">
                    <mxGeometry x="1260" y="1466" width="119" height="35" as="geometry"/>
                </mxCell>
                <mxCell id="146" value="&lt;font style=&quot;font-size: 14px;&quot;&gt;Click login&lt;/font&gt;" style="text;html=1;strokeColor=none;fillColor=none;align=center;verticalAlign=middle;whiteSpace=wrap;rounded=0;strokeWidth=2;fontColor=#000000;rotation=30;fontSize=14;" parent="1" vertex="1">
                    <mxGeometry x="1313" y="1379" width="86.52" height="45" as="geometry"/>
                </mxCell>
                <mxCell id="149" value="&lt;font style=&quot;font-size: 14px;&quot;&gt;Click user icon&lt;/font&gt;" style="text;html=1;strokeColor=none;fillColor=none;align=center;verticalAlign=middle;whiteSpace=wrap;rounded=0;strokeWidth=2;fontColor=#000000;rotation=60;fontSize=14;" parent="1" vertex="1">
                    <mxGeometry x="1423" y="1370" width="119" height="35" as="geometry"/>
                </mxCell>
                <mxCell id="152" value="&lt;font style=&quot;font-size: 14px;&quot;&gt;Click create icon&lt;/font&gt;" style="text;html=1;strokeColor=none;fillColor=none;align=center;verticalAlign=middle;whiteSpace=wrap;rounded=0;strokeWidth=2;fontColor=#000000;rotation=-69;fontSize=14;" parent="1" vertex="1">
                    <mxGeometry x="1531" y="1286" width="119" height="35" as="geometry"/>
                </mxCell>
                <mxCell id="156" value="Click Market tab" style="text;html=1;strokeColor=none;fillColor=none;align=center;verticalAlign=middle;whiteSpace=wrap;rounded=0;strokeWidth=2;fontSize=14;fontColor=#000000;rotation=40;" parent="1" vertex="1">
                    <mxGeometry x="1583" y="1578" width="123" height="30" as="geometry"/>
                </mxCell>
                <mxCell id="157" value="Click Account tab (Admin)" style="text;html=1;strokeColor=none;fillColor=none;align=center;verticalAlign=middle;whiteSpace=wrap;rounded=0;strokeWidth=2;fontSize=14;fontColor=#000000;rotation=-30;" parent="1" vertex="1">
                    <mxGeometry x="895" y="1565" width="165" height="30" as="geometry"/>
                </mxCell>
                <mxCell id="158" value="Click Exchange tab" style="text;html=1;strokeColor=none;fillColor=none;align=center;verticalAlign=middle;whiteSpace=wrap;rounded=0;strokeWidth=2;fontSize=14;fontColor=#000000;rotation=-30;" parent="1" vertex="1">
                    <mxGeometry x="1568" y="1397" width="126" height="30" as="geometry"/>
                </mxCell>
                <mxCell id="159" value="Click Auction tab" style="text;html=1;strokeColor=none;fillColor=none;align=center;verticalAlign=middle;whiteSpace=wrap;rounded=0;strokeWidth=2;fontSize=14;fontColor=#000000;" parent="1" vertex="1">
                    <mxGeometry x="1438" y="1580" width="115" height="30" as="geometry"/>
                </mxCell>
                <mxCell id="162" value="Click Request tab" style="text;html=1;strokeColor=none;fillColor=none;align=center;verticalAlign=middle;whiteSpace=wrap;rounded=0;strokeWidth=2;fontSize=14;fontColor=#000000;rotation=15;" parent="1" vertex="1">
                    <mxGeometry x="920" y="1452" width="135" height="30" as="geometry"/>
                </mxCell>
                <mxCell id="165" value="History" style="rounded=0;whiteSpace=wrap;html=1;strokeWidth=2;strokeColor=#000000;fontSize=14;" parent="1" vertex="1">
                    <mxGeometry x="1255" y="1128" width="120" height="60" as="geometry"/>
                </mxCell>
                <mxCell id="169" style="edgeStyle=none;html=1;exitX=0.75;exitY=1;exitDx=0;exitDy=0;strokeColor=#000000;strokeWidth=2;entryX=0.5;entryY=0;entryDx=0;entryDy=0;fontSize=14;" edge="1" parent="1" source="168" target="172">
                    <mxGeometry relative="1" as="geometry">
                        <mxPoint x="1262" y="1831" as="targetPoint"/>
                    </mxGeometry>
                </mxCell>
                <mxCell id="170" style="edgeStyle=none;html=1;exitX=0.5;exitY=1;exitDx=0;exitDy=0;strokeColor=#000000;strokeWidth=2;entryX=0.5;entryY=0;entryDx=0;entryDy=0;fontSize=14;" edge="1" parent="1" source="168" target="173">
                    <mxGeometry relative="1" as="geometry">
                        <mxPoint x="1135" y="1826" as="targetPoint"/>
                        <Array as="points"/>
                    </mxGeometry>
                </mxCell>
                <mxCell id="171" style="edgeStyle=none;html=1;exitX=0.25;exitY=1;exitDx=0;exitDy=0;strokeColor=#000000;strokeWidth=2;entryX=1;entryY=0;entryDx=0;entryDy=0;fontSize=14;" edge="1" parent="1" source="168" target="174">
                    <mxGeometry relative="1" as="geometry">
                        <mxPoint x="1006.7619047619046" y="1749.428571428571" as="targetPoint"/>
                        <Array as="points"/>
                    </mxGeometry>
                </mxCell>
                <mxCell id="168" value="Earn points" style="rounded=0;whiteSpace=wrap;html=1;fontSize=14;" vertex="1" parent="1">
                    <mxGeometry x="1186" y="1588" width="120" height="60" as="geometry"/>
                </mxCell>
                <mxCell id="172" value="New User" style="rounded=0;whiteSpace=wrap;html=1;fontSize=14;" vertex="1" parent="1">
                    <mxGeometry x="1206" y="1766" width="120" height="60" as="geometry"/>
                </mxCell>
                <mxCell id="173" value="Invite Friend" style="rounded=0;whiteSpace=wrap;html=1;fontSize=14;" vertex="1" parent="1">
                    <mxGeometry x="1070" y="1766" width="120" height="60" as="geometry"/>
                </mxCell>
                <mxCell id="174" value="Check&amp;nbsp; Attendance" style="rounded=0;whiteSpace=wrap;html=1;fontSize=14;" vertex="1" parent="1">
                    <mxGeometry x="912" y="1766" width="120" height="60" as="geometry"/>
                </mxCell>
            </root>
        </mxGraphModel>
    </diagram>
</mxfile>